<?xml version="1.0" encoding="UTF-8"?>
<svg id="Layer_2" data-name="Layer 2" xmlns="http://www.w3.org/2000/svg" viewBox="0 0 202.6 248.78">
  <defs>
    <style>
      .cls-1 {
        fill: none;
      }

      .cls-2 {
        fill: #ff9f5e;
      }

      .cls-3 {
        fill: #ff5f00;
      }

      .cls-4 {
        fill: #222;
      }

      .cls-5 {
        fill: #2d2d2d;
      }
    </style>
  </defs>
  <g id="Layer_1-2" data-name="Layer 1">
    <g>
      <polygon class="cls-1" points="145.26 128.12 134.68 138.5 130.78 134.22 129.5 131.42 131.34 128.97 134.92 125.97 134.94 125.97 145.26 128.12"/>
      <path class="cls-3" d="M103.68,175.63h-18.68v-24.49c0-7.4-5.77-13.16-15.06-15.06-.56-.12-1.12-.21-1.68-.29-2.49-7.02-7.32-12.21-14.51-12.21h-17.16v48.95h5.61v33.18H12.77c-9.72,0-12.77-8.65-12.77-15.68v-84.41c0-6.5,4.31-13.37,13.3-13.37h44.78c45.03,0,60.24,49.76,45.61,83.38Z"/>
      <path class="cls-2" d="M154.44,152.54v87.45c0,5.77-7.63,8.79-15.19,8.79s-15.17-3.03-15.17-8.79v-29.15c0-1.8-1.46-3.26-3.26-3.26h-39.08c-.86,0-1.7.35-2.31.97-.61.61-.95,1.46-.95,2.34l.31,27.99c0,6.81-7.79,9.92-15.03,9.92s-15.03-3.11-15.03-9.92v-87.73c0-2.24.93-4.08,2.82-5.62,3.76-3.08,10.79-4.32,17.1-3.04,2.95.6,9.82,2.65,9.82,8.66v27.75c0,1.8,1.46,3.26,3.26,3.26h39.08c1.8,0,3.26-1.46,3.26-3.26v-16.22c.99.64,2.28.7,3.34.1,1.25-.69,1.9-2.13,1.6-3.54l-.13-.6.77.97c.57.72,1.41,1.15,2.32,1.21l1.97.13c1.19.08,2.28-.47,2.94-1.44.64-.97.73-2.2.22-3.25l-1.25-2.54v-1.15l2.67-4.03.95-.42,1.67.59,1.16.86.37,1.75c.26,1.29,1.28,2.3,2.58,2.54,1.29.25,2.61-.31,3.34-1.41l1.24-1.9c.42-.64.6-1.4.52-2.15l-.34-2.9c-.03-.34-.12-.65-.26-.95,2.74,1.71,4.67,4.32,4.67,7.98Z"/>
      <path class="cls-4" d="M120.72,8.08c-.13.27-.2.59-.2.91,0,.18.01.37.07.52-.03-.16-.05-.34-.05-.52,0-.33.07-.63.18-.91ZM131.34,128.97l-1.84,2.45,1.28,2.79-1.27-2.79,1.83-2.45Z"/>
      <path class="cls-3" d="M120.53,8.99c0,.18.03.37.05.52-.05-.16-.07-.34-.07-.52,0-.33.07-.64.2-.91-.12.29-.18.59-.18.91Z"/>
      <path class="cls-5" d="M188.59,142.44l-9.51-17.42,6.69,3.95-17.67-54.47-33.04-38.25h0s.01-.01.01-.01l-2.02-6.22,3.87-7.45-1.85-4.23c1.85-2.88,14.04.25,21.19-2.51-.09-.05-.17-.09-.25-.13-.27-.16-.55-.31-.82-.46.27.14.55.29.82.44.09.05.17.09.25.14.51.3,1.02.63,1.53.98-.12-7.25-9.12-10.57-22.79-11.81-7.35-5.73-14.25-6.15-20.85-3.21-15.92,9.63-22.57,21.87-19.96,36.71l-6.25,9.34,1.11,26.64,5.14,8.12,8.6,30.11,14.86,16.26,7.52-5.05,3.97.84-9.63,6.85-.94,2.17v2.87l-1.23,1.68.44,1.76.64.67-.26,3.81.82,2.13.44,1.12,1.9,1.15,2.21,1.32-1-2.02-.17-.78,2.95.56-2.04-2.43,4.93-1.38-5.65,8.68.2,4.07,3.08,2.96-.78-3.68.26-2.64,2.96-4.92,4.33-2.64-2.75,5.39.52,3.81,1.84,2.31,1.97.13-1.58-3.22v-2.9l3.74-5.65,3.03-1.32,3.35,1.19,2.54,1.9.6,2.96,1.25-1.9-.33-2.9-2.23-2.43-4.54-1.45,2.64-3.21,2.4-2.91,5.14-6.25,10.06,7.48,15.41,19.91,10.11,20.74,16.82,6.73v-7.02l-14.01-35.03ZM149.47,13.18c.16.04.33.08.48.12-.17-.04-.33-.08-.48-.1-.18-.04-.35-.08-.53-.12.18.03.35.07.53.1ZM120.59,9.51c-.05-.16-.07-.34-.07-.52,0-.33.07-.64.2-.91-.12.29-.18.59-.18.91,0,.18.03.37.05.52ZM125.1,9.51c.03-.16.05-.34.05-.52s-.03-.37-.05-.52c.05.16.07.34.07.52s-.01.37-.07.52ZM129.3,140.57l-5.9.37-1.1,1.55c-.34.1-.65.26-.93.47l-.09-.42,1.94-3.77,2.54-4.85,6.2,5.69.82.74-3.5.22ZM134.69,138.51h-.01s-3.9-4.29-3.9-4.29l-1.28-2.79,1.84-2.45,3.59-3h.01l10.32,2.15-10.57,10.39Z"/>
    </g>
  </g>
</svg>